<svg viewBox="0 0 867 166" xmlns="http://www.w3.org/2000/svg"><path d="m-88.94-88.25h1045.58v308.52h-1045.58z" fill="none"/><path d="m42.15 42.66c12.4 0 22.74 6.38 27.57 13.27v-11.54h18.94v86.12h-13.56a5.38 5.38 0 0 1 -5.38-5.38v-6.13c-4.83 6.89-15.17 13.26-27.57 13.26-23.6-.02-41.51-20.17-41.51-44.81s17.91-44.79 41.51-44.79m3.45 17.23c-15.34 0-25.67 12.11-25.67 27.56s10.33 27.55 25.67 27.55 25.66-12 25.66-27.55-10.33-27.56-25.66-27.56"/><path d="m110.18 44.39h18.95v11.71c5.17-8.61 15-13.44 26.18-13.44 20 0 32.9 14.13 32.9 36v51.84h-13.56a5.39 5.39 0 0 1 -5.39-5.38v-43.35c0-13.61-6.89-21.88-17.91-21.88-12.57 0-22.22 9.82-22.22 28.25v42.37h-13.56a5.38 5.38 0 0 1 -5.39-5.38z"/><path d="m244.72 42.66c12.4 0 22.74 6.38 27.56 13.27v-54.6h19v129.18h-13.61a5.38 5.38 0 0 1 -5.39-5.38v-6.13c-4.82 6.89-15.16 13.26-27.56 13.26-23.6 0-41.51-20.15-41.51-44.79s17.91-44.79 41.51-44.79m3.45 17.23c-15.33 0-25.67 12.06-25.67 27.56s10.34 27.53 25.67 27.53 25.66-12 25.66-27.55-10.33-27.56-25.66-27.56"/><path d="m312.75 44.39h18.95v15.33a24.23 24.23 0 0 1 22.74-16.2 36.79 36.79 0 0 1 7.4.7v19.46a29.55 29.55 0 0 0 -9.47-1.55c-10.85 0-20.67 9.13-20.67 26.36v42h-13.56a5.38 5.38 0 0 1 -5.39-5.38z"/><path d="m412.94 132.24c-25.5 0-45.13-19.81-45.13-44.78s19.63-44.79 45.13-44.79 45.13 19.81 45.13 44.79-19.64 44.78-45.13 44.78m0-17.57c15.16 0 25.84-11.89 25.84-27.21s-10.68-27.22-25.84-27.22c-15.33 0-26 11.89-26 27.22s10.68 27.21 26 27.21"/><path d="m482.9 25.61a12.82 12.82 0 0 1 -12.74-12.74 12.79 12.79 0 0 1 12.74-12.58 12.54 12.54 0 0 1 12.58 12.58 12.57 12.57 0 0 1 -12.58 12.74m-9.47 18.78h18.94v86.13h-13.55a5.39 5.39 0 0 1 -5.39-5.39z"/><path d="m549.46 42.66c12.41 0 22.74 6.38 27.57 13.27v-54.6h19v129.18h-13.62a5.38 5.38 0 0 1 -5.38-5.38v-6.13c-4.83 6.89-15.16 13.26-27.57 13.26-23.59 0-41.51-20.15-41.51-44.79s17.92-44.79 41.51-44.79m3.45 17.23c-15.33 0-25.67 12.06-25.67 27.56s10.34 27.53 25.67 27.53 25.67-12 25.67-27.55-10.34-27.56-25.67-27.56"/><path d="m805.07 98a9.57 9.57 0 1 1 9.57-9.57 9.58 9.58 0 0 1 -9.57 9.57m-105.73 0a9.57 9.57 0 1 1 9.56-9.57 9.58 9.58 0 0 1 -9.56 9.57m109.16-57.61 19.12-33.12a4 4 0 0 0 -6.89-4l-19.36 33.56a120.15 120.15 0 0 0 -98.33 0l-19.36-33.53a4 4 0 1 0 -6.89 4l19.12 33.12a112.89 112.89 0 0 0 -58.57 90.35h229.73a112.89 112.89 0 0 0 -58.57-90.38" fill="#3ddc84"/></svg>
